<svg width="75" height="96" viewBox="0 0 75 96" fill="none" xmlns="http://www.w3.org/2000/svg">
<path fill-rule="evenodd" clip-rule="evenodd" d="M75 3.40909V6.81818H71.5909H68.1818V17.0455V27.2727H64.7727H61.3636V30.6818V34.0909H57.9545H54.5455V37.5V40.9091H51.1364H47.7273V47.7273V54.5455H51.1364H54.5455V57.9545V61.3636H57.9545H61.3636V64.7727V68.1818H64.7727H68.1818V78.4091V88.6364H71.5909H75V92.0455V95.4545H37.5H0V92.0455V88.6364H3.40909H6.81818V78.4091V68.1818H10.2273H13.6364V64.7727V61.3636H17.0455H20.4545V57.9545V54.5455H23.8636H27.2727V47.7273V40.9091H23.8636H20.4545V37.5V34.0909H17.0455H13.6364V30.6818V27.2727H10.2273H6.81818V17.0455V6.81818H3.40909H0V3.40909V0H37.5H75V3.40909ZM13.6364 17.0455V27.2727H17.0455H20.4545V30.6818V34.0909H23.8636H27.2727V37.5V40.9091H30.6818H34.0909V47.7273V54.5455H30.6818H27.2727V57.9545V61.3636H23.8636H20.4545V64.7727V68.1818H17.0455H13.6364V78.4091V88.6364H17.0455H20.4545V85.2273V81.8182H23.8636H27.2727V78.4091V75H30.6818H34.0909V71.5909V68.1818H37.5H40.9091V71.5909V75H44.3182H47.7273V78.4091V81.8182H51.1364H54.5455V85.2273V88.6364H57.9545H61.3636V78.4091V68.1818H57.9545H54.5455V64.7727V61.3636H51.1364H47.7273V57.9545V54.5455H44.3182H40.9091V47.7273V40.9091H44.3182H47.7273V37.5V34.0909H51.1364H54.5455V30.6818V27.2727H57.9545H61.3636V17.0455V6.81818H37.5H13.6364V17.0455ZM47.7273 30.6818V34.0909H44.3182H40.9091V37.5V40.9091H37.5H34.0909V37.5V34.0909H30.6818H27.2727V30.6818V27.2727H37.5H47.7273V30.6818Z" fill="#434141"/>
<path d="M13.6364 17.0455V27.2727H17.0455H20.4545V30.6818V34.0909H23.8636H27.2727V30.6818V27.2727H37.5H47.7273V30.6818V34.0909H51.1364H54.5455V30.6818V27.2727H57.9545H61.3636V17.0455V6.81818H37.5H13.6364V17.0455Z" fill="white"/>
<path d="M34.0909 40.9091V47.7273V54.5455H30.6818H27.2727V57.9545V61.3636H23.8636H20.4545V64.7727V68.1818H17.0455H13.6364V78.4091V88.6364H17.0455H20.4545V85.2273V81.8182H23.8636H27.2727V78.4091V75H30.6818H34.0909V71.5909V68.1818H37.5H40.9091V71.5909V75H44.3182H47.7273V78.4091V81.8182H51.1364H54.5455V85.2273V88.6364H57.9545H61.3636V78.4091V68.1818H57.9545H54.5455V64.7727V61.3636H51.1364H47.7273V57.9545V54.5455H44.3182H40.9091V47.7273V40.9091H37.5H34.0909Z" fill="white"/>
<path d="M40.9091 40.9091H44.3182H47.7273V37.5V34.0909H44.3182H40.9091V37.5V40.9091Z" fill="white"/>
<path d="M27.2727 34.0909V37.5V40.9091H30.6818H34.0909V37.5V34.0909H30.6818H27.2727Z" fill="white"/>
</svg>
