<svg width="1120" height="1120" viewBox="0 0 1120 1120" fill="none" xmlns="http://www.w3.org/2000/svg">
<rect width="1120" height="1120" rx="560" fill="#FF0800"/>
<g filter="url(#filter0_d_139_189)">
<path d="M441.989 352.887C431.254 359.085 419.182 362.723 406.463 363.596C393.743 364.468 380.625 362.557 367.857 357.971C355.09 353.386 342.922 346.216 332.05 336.87C321.178 327.525 311.814 316.188 304.492 303.506C297.171 290.823 292.035 277.045 289.379 262.956C286.723 248.868 286.598 234.746 289.012 221.396C291.426 208.046 296.33 195.73 303.446 185.151C310.562 174.573 319.75 165.938 330.485 159.741L386.237 256.314L441.989 352.887Z" fill="white"/>
</g>
<g filter="url(#filter1_d_139_189)">
<path d="M353.887 440.992C347.689 451.727 339.06 460.918 328.493 468.04C317.925 475.162 305.626 480.076 292.297 482.502C278.968 484.927 264.87 484.816 250.809 482.176C236.748 479.535 222.999 474.416 210.347 467.111C197.694 459.807 186.386 450.459 177.069 439.603C167.751 428.746 160.606 416.593 156.042 403.837C151.478 391.081 149.583 377.973 150.467 365.26C151.351 352.547 154.996 340.478 161.193 329.744L257.54 385.368L353.887 440.992Z" fill="white"/>
</g>
<g filter="url(#filter2_d_139_189)">
<path d="M321.502 559.389C321.502 571.784 318.624 584.058 313.033 595.51C307.442 606.961 299.248 617.367 288.917 626.132C278.586 634.896 266.322 641.849 252.825 646.592C239.327 651.336 224.86 653.777 210.251 653.777C195.641 653.777 181.175 651.336 167.677 646.592C154.179 641.849 141.915 634.896 131.585 626.132C121.254 617.367 113.059 606.961 107.468 595.51C101.878 584.058 99 571.784 99 559.389L210.251 559.389H321.502Z" fill="white"/>
</g>
<g filter="url(#filter3_d_139_189)">
<path d="M353.886 679.743C360.084 690.478 363.729 702.546 364.613 715.259C365.497 727.972 363.603 741.081 359.039 753.836C354.475 766.592 347.33 778.745 338.012 789.602C328.695 800.459 317.387 809.807 304.735 817.111C292.082 824.416 278.333 829.535 264.272 832.176C250.211 834.817 236.114 834.928 222.785 832.503C209.456 830.077 197.156 825.163 186.589 818.041C176.021 810.919 167.392 801.728 161.194 790.994L257.54 735.368L353.886 679.743Z" fill="white"/>
</g>
<g filter="url(#filter4_d_139_189)">
<path d="M440.994 767.194C451.728 773.392 460.919 782.021 468.041 792.589C475.163 803.157 480.077 815.456 482.503 828.785C484.928 842.114 484.817 856.211 482.176 870.272C479.535 884.333 474.416 898.082 467.111 910.735C459.807 923.387 450.459 934.695 439.602 944.012C428.745 953.33 416.592 960.475 403.836 965.039C391.081 969.603 377.972 971.497 365.259 970.613C352.546 969.729 340.478 966.084 329.743 959.886L385.368 863.54L440.994 767.194Z" fill="white"/>
</g>
<g filter="url(#filter5_d_139_189)">
<path d="M560.389 799C572.784 799 585.058 801.878 596.51 807.469C607.961 813.059 618.367 821.254 627.132 831.585C635.896 841.915 642.849 854.179 647.592 867.677C652.336 881.175 654.777 895.641 654.777 910.251C654.777 924.861 652.336 939.327 647.592 952.825C642.849 966.322 635.896 978.587 627.132 988.917C618.367 999.248 607.961 1007.44 596.51 1013.03C585.058 1018.62 572.784 1021.5 560.389 1021.5L560.389 910.251V799Z" fill="white"/>
</g>
<g filter="url(#filter6_d_139_189)">
<path d="M679.743 767.194C690.478 760.997 702.546 757.352 715.259 756.468C727.972 755.584 741.081 757.478 753.837 762.042C766.592 766.606 778.746 773.751 789.602 783.069C800.459 792.386 809.807 803.694 817.112 816.346C824.416 828.998 829.535 842.748 832.176 856.809C834.817 870.87 834.928 884.967 832.503 898.296C830.077 911.625 825.164 923.924 818.041 934.492C810.919 945.06 801.729 953.689 790.994 959.886L735.369 863.54L679.743 767.194Z" fill="white"/>
</g>
<g filter="url(#filter7_d_139_189)">
<path d="M767.195 679.743C773.392 669.008 782.021 659.818 792.589 652.696C803.157 645.573 815.456 640.659 828.785 638.234C842.114 635.809 856.212 635.92 870.273 638.561C884.334 641.202 898.083 646.321 910.735 653.625C923.387 660.93 934.695 670.278 944.013 681.135C953.33 691.991 960.475 704.145 965.039 716.9C969.603 729.656 971.497 742.765 970.613 755.478C969.729 768.191 966.084 780.259 959.887 790.994L863.541 735.368L767.195 679.743Z" fill="white"/>
</g>
<g filter="url(#filter8_d_139_189)">
<path d="M800 561.389C800 548.993 802.878 536.719 808.469 525.268C814.06 513.816 822.254 503.411 832.585 494.646C842.916 485.881 855.18 478.928 868.677 474.185C882.175 469.441 896.641 467 911.251 467C925.861 467 940.327 469.441 953.825 474.185C967.323 478.928 979.587 485.881 989.917 494.646C1000.25 503.411 1008.44 513.816 1014.03 525.268C1019.62 536.719 1022.5 548.993 1022.5 561.389L911.251 561.389H800Z" fill="white"/>
</g>
<g filter="url(#filter9_d_139_189)">
<path d="M768.195 439.994C761.997 429.259 758.352 417.191 757.468 404.478C756.584 391.765 758.478 378.656 763.042 365.901C767.606 353.145 774.751 340.991 784.069 330.135C793.386 319.278 804.694 309.93 817.346 302.625C829.999 295.321 843.748 290.202 857.809 287.561C871.87 284.92 885.967 284.809 899.296 287.234C912.625 289.66 924.925 294.574 935.492 301.696C946.06 308.818 954.689 318.008 960.887 328.743L864.541 384.368L768.195 439.994Z" fill="white"/>
</g>
<g filter="url(#filter10_d_139_189)">
<path d="M680.915 353.715C670.181 347.517 660.99 338.888 653.868 328.32C646.746 317.752 641.832 305.453 639.407 292.124C636.981 278.795 637.092 264.698 639.733 250.637C642.374 236.576 647.493 222.826 654.798 210.174C662.103 197.522 671.45 186.214 682.307 176.897C693.164 167.579 705.317 160.434 718.073 155.87C730.829 151.306 743.937 149.412 756.65 150.296C769.363 151.18 781.432 154.825 792.166 161.022L736.541 257.368L680.915 353.715Z" fill="white"/>
</g>
<g filter="url(#filter11_d_139_189)">
<path d="M560.389 321.502C547.993 321.502 535.719 318.624 524.268 313.033C512.816 307.442 502.411 299.248 493.646 288.917C484.881 278.586 477.928 266.322 473.185 252.825C468.441 239.327 466 224.86 466 210.251C466 195.641 468.441 181.175 473.185 167.677C477.928 154.179 484.881 141.915 493.646 131.585C502.411 121.254 512.816 113.059 524.268 107.468C535.719 101.878 547.993 99 560.389 99L560.389 210.251V321.502Z" fill="white"/>
</g>
<g filter="url(#filter12_d_139_189)">
<circle cx="560" cy="560" r="175" fill="white"/>
</g>
<defs>
<filter id="filter0_d_139_189" x="283.29" y="159.741" width="162.699" height="212.06" filterUnits="userSpaceOnUse" color-interpolation-filters="sRGB">
<feFlood flood-opacity="0" result="BackgroundImageFix"/>
<feColorMatrix in="SourceAlpha" type="matrix" values="0 0 0 0 0 0 0 0 0 0 0 0 0 0 0 0 0 0 127 0" result="hardAlpha"/>
<feOffset dy="4"/>
<feGaussianBlur stdDeviation="2"/>
<feComposite in2="hardAlpha" operator="out"/>
<feColorMatrix type="matrix" values="0 0 0 0 0 0 0 0 0 0 0 0 0 0 0 0 0 0 0.25 0"/>
<feBlend mode="normal" in2="BackgroundImageFix" result="effect1_dropShadow_139_189"/>
<feBlend mode="normal" in="SourceGraphic" in2="effect1_dropShadow_139_189" result="shape"/>
</filter>
<filter id="filter1_d_139_189" x="146.256" y="329.744" width="211.631" height="162.498" filterUnits="userSpaceOnUse" color-interpolation-filters="sRGB">
<feFlood flood-opacity="0" result="BackgroundImageFix"/>
<feColorMatrix in="SourceAlpha" type="matrix" values="0 0 0 0 0 0 0 0 0 0 0 0 0 0 0 0 0 0 127 0" result="hardAlpha"/>
<feOffset dy="4"/>
<feGaussianBlur stdDeviation="2"/>
<feComposite in2="hardAlpha" operator="out"/>
<feColorMatrix type="matrix" values="0 0 0 0 0 0 0 0 0 0 0 0 0 0 0 0 0 0 0.25 0"/>
<feBlend mode="normal" in2="BackgroundImageFix" result="effect1_dropShadow_139_189"/>
<feBlend mode="normal" in="SourceGraphic" in2="effect1_dropShadow_139_189" result="shape"/>
</filter>
<filter id="filter2_d_139_189" x="95" y="559.389" width="230.502" height="102.389" filterUnits="userSpaceOnUse" color-interpolation-filters="sRGB">
<feFlood flood-opacity="0" result="BackgroundImageFix"/>
<feColorMatrix in="SourceAlpha" type="matrix" values="0 0 0 0 0 0 0 0 0 0 0 0 0 0 0 0 0 0 127 0" result="hardAlpha"/>
<feOffset dy="4"/>
<feGaussianBlur stdDeviation="2"/>
<feComposite in2="hardAlpha" operator="out"/>
<feColorMatrix type="matrix" values="0 0 0 0 0 0 0 0 0 0 0 0 0 0 0 0 0 0 0.25 0"/>
<feBlend mode="normal" in2="BackgroundImageFix" result="effect1_dropShadow_139_189"/>
<feBlend mode="normal" in="SourceGraphic" in2="effect1_dropShadow_139_189" result="shape"/>
</filter>
<filter id="filter3_d_139_189" x="157.194" y="679.743" width="211.63" height="162.5" filterUnits="userSpaceOnUse" color-interpolation-filters="sRGB">
<feFlood flood-opacity="0" result="BackgroundImageFix"/>
<feColorMatrix in="SourceAlpha" type="matrix" values="0 0 0 0 0 0 0 0 0 0 0 0 0 0 0 0 0 0 127 0" result="hardAlpha"/>
<feOffset dy="4"/>
<feGaussianBlur stdDeviation="2"/>
<feComposite in2="hardAlpha" operator="out"/>
<feColorMatrix type="matrix" values="0 0 0 0 0 0 0 0 0 0 0 0 0 0 0 0 0 0 0.25 0"/>
<feBlend mode="normal" in2="BackgroundImageFix" result="effect1_dropShadow_139_189"/>
<feBlend mode="normal" in="SourceGraphic" in2="effect1_dropShadow_139_189" result="shape"/>
</filter>
<filter id="filter4_d_139_189" x="325.743" y="767.194" width="162.499" height="211.63" filterUnits="userSpaceOnUse" color-interpolation-filters="sRGB">
<feFlood flood-opacity="0" result="BackgroundImageFix"/>
<feColorMatrix in="SourceAlpha" type="matrix" values="0 0 0 0 0 0 0 0 0 0 0 0 0 0 0 0 0 0 127 0" result="hardAlpha"/>
<feOffset dy="4"/>
<feGaussianBlur stdDeviation="2"/>
<feComposite in2="hardAlpha" operator="out"/>
<feColorMatrix type="matrix" values="0 0 0 0 0 0 0 0 0 0 0 0 0 0 0 0 0 0 0.25 0"/>
<feBlend mode="normal" in2="BackgroundImageFix" result="effect1_dropShadow_139_189"/>
<feBlend mode="normal" in="SourceGraphic" in2="effect1_dropShadow_139_189" result="shape"/>
</filter>
<filter id="filter5_d_139_189" x="556.389" y="799" width="102.389" height="230.502" filterUnits="userSpaceOnUse" color-interpolation-filters="sRGB">
<feFlood flood-opacity="0" result="BackgroundImageFix"/>
<feColorMatrix in="SourceAlpha" type="matrix" values="0 0 0 0 0 0 0 0 0 0 0 0 0 0 0 0 0 0 127 0" result="hardAlpha"/>
<feOffset dy="4"/>
<feGaussianBlur stdDeviation="2"/>
<feComposite in2="hardAlpha" operator="out"/>
<feColorMatrix type="matrix" values="0 0 0 0 0 0 0 0 0 0 0 0 0 0 0 0 0 0 0.25 0"/>
<feBlend mode="normal" in2="BackgroundImageFix" result="effect1_dropShadow_139_189"/>
<feBlend mode="normal" in="SourceGraphic" in2="effect1_dropShadow_139_189" result="shape"/>
</filter>
<filter id="filter6_d_139_189" x="675.743" y="756.256" width="162.5" height="211.63" filterUnits="userSpaceOnUse" color-interpolation-filters="sRGB">
<feFlood flood-opacity="0" result="BackgroundImageFix"/>
<feColorMatrix in="SourceAlpha" type="matrix" values="0 0 0 0 0 0 0 0 0 0 0 0 0 0 0 0 0 0 127 0" result="hardAlpha"/>
<feOffset dy="4"/>
<feGaussianBlur stdDeviation="2"/>
<feComposite in2="hardAlpha" operator="out"/>
<feColorMatrix type="matrix" values="0 0 0 0 0 0 0 0 0 0 0 0 0 0 0 0 0 0 0.25 0"/>
<feBlend mode="normal" in2="BackgroundImageFix" result="effect1_dropShadow_139_189"/>
<feBlend mode="normal" in="SourceGraphic" in2="effect1_dropShadow_139_189" result="shape"/>
</filter>
<filter id="filter7_d_139_189" x="763.194" y="636.494" width="211.631" height="162.5" filterUnits="userSpaceOnUse" color-interpolation-filters="sRGB">
<feFlood flood-opacity="0" result="BackgroundImageFix"/>
<feColorMatrix in="SourceAlpha" type="matrix" values="0 0 0 0 0 0 0 0 0 0 0 0 0 0 0 0 0 0 127 0" result="hardAlpha"/>
<feOffset dy="4"/>
<feGaussianBlur stdDeviation="2"/>
<feComposite in2="hardAlpha" operator="out"/>
<feColorMatrix type="matrix" values="0 0 0 0 0 0 0 0 0 0 0 0 0 0 0 0 0 0 0.25 0"/>
<feBlend mode="normal" in2="BackgroundImageFix" result="effect1_dropShadow_139_189"/>
<feBlend mode="normal" in="SourceGraphic" in2="effect1_dropShadow_139_189" result="shape"/>
</filter>
<filter id="filter8_d_139_189" x="796" y="467" width="230.502" height="102.389" filterUnits="userSpaceOnUse" color-interpolation-filters="sRGB">
<feFlood flood-opacity="0" result="BackgroundImageFix"/>
<feColorMatrix in="SourceAlpha" type="matrix" values="0 0 0 0 0 0 0 0 0 0 0 0 0 0 0 0 0 0 127 0" result="hardAlpha"/>
<feOffset dy="4"/>
<feGaussianBlur stdDeviation="2"/>
<feComposite in2="hardAlpha" operator="out"/>
<feColorMatrix type="matrix" values="0 0 0 0 0 0 0 0 0 0 0 0 0 0 0 0 0 0 0.25 0"/>
<feBlend mode="normal" in2="BackgroundImageFix" result="effect1_dropShadow_139_189"/>
<feBlend mode="normal" in="SourceGraphic" in2="effect1_dropShadow_139_189" result="shape"/>
</filter>
<filter id="filter9_d_139_189" x="753.257" y="285.494" width="211.63" height="162.5" filterUnits="userSpaceOnUse" color-interpolation-filters="sRGB">
<feFlood flood-opacity="0" result="BackgroundImageFix"/>
<feColorMatrix in="SourceAlpha" type="matrix" values="0 0 0 0 0 0 0 0 0 0 0 0 0 0 0 0 0 0 127 0" result="hardAlpha"/>
<feOffset dy="4"/>
<feGaussianBlur stdDeviation="2"/>
<feComposite in2="hardAlpha" operator="out"/>
<feColorMatrix type="matrix" values="0 0 0 0 0 0 0 0 0 0 0 0 0 0 0 0 0 0 0.25 0"/>
<feBlend mode="normal" in2="BackgroundImageFix" result="effect1_dropShadow_139_189"/>
<feBlend mode="normal" in="SourceGraphic" in2="effect1_dropShadow_139_189" result="shape"/>
</filter>
<filter id="filter10_d_139_189" x="633.667" y="150.084" width="162.499" height="211.63" filterUnits="userSpaceOnUse" color-interpolation-filters="sRGB">
<feFlood flood-opacity="0" result="BackgroundImageFix"/>
<feColorMatrix in="SourceAlpha" type="matrix" values="0 0 0 0 0 0 0 0 0 0 0 0 0 0 0 0 0 0 127 0" result="hardAlpha"/>
<feOffset dy="4"/>
<feGaussianBlur stdDeviation="2"/>
<feComposite in2="hardAlpha" operator="out"/>
<feColorMatrix type="matrix" values="0 0 0 0 0 0 0 0 0 0 0 0 0 0 0 0 0 0 0.25 0"/>
<feBlend mode="normal" in2="BackgroundImageFix" result="effect1_dropShadow_139_189"/>
<feBlend mode="normal" in="SourceGraphic" in2="effect1_dropShadow_139_189" result="shape"/>
</filter>
<filter id="filter11_d_139_189" x="462" y="99" width="102.389" height="230.502" filterUnits="userSpaceOnUse" color-interpolation-filters="sRGB">
<feFlood flood-opacity="0" result="BackgroundImageFix"/>
<feColorMatrix in="SourceAlpha" type="matrix" values="0 0 0 0 0 0 0 0 0 0 0 0 0 0 0 0 0 0 127 0" result="hardAlpha"/>
<feOffset dy="4"/>
<feGaussianBlur stdDeviation="2"/>
<feComposite in2="hardAlpha" operator="out"/>
<feColorMatrix type="matrix" values="0 0 0 0 0 0 0 0 0 0 0 0 0 0 0 0 0 0 0.25 0"/>
<feBlend mode="normal" in2="BackgroundImageFix" result="effect1_dropShadow_139_189"/>
<feBlend mode="normal" in="SourceGraphic" in2="effect1_dropShadow_139_189" result="shape"/>
</filter>
<filter id="filter12_d_139_189" x="381" y="385" width="358" height="358" filterUnits="userSpaceOnUse" color-interpolation-filters="sRGB">
<feFlood flood-opacity="0" result="BackgroundImageFix"/>
<feColorMatrix in="SourceAlpha" type="matrix" values="0 0 0 0 0 0 0 0 0 0 0 0 0 0 0 0 0 0 127 0" result="hardAlpha"/>
<feOffset dy="4"/>
<feGaussianBlur stdDeviation="2"/>
<feComposite in2="hardAlpha" operator="out"/>
<feColorMatrix type="matrix" values="0 0 0 0 0 0 0 0 0 0 0 0 0 0 0 0 0 0 0.25 0"/>
<feBlend mode="normal" in2="BackgroundImageFix" result="effect1_dropShadow_139_189"/>
<feBlend mode="normal" in="SourceGraphic" in2="effect1_dropShadow_139_189" result="shape"/>
</filter>
</defs>
</svg>
