<svg width="155" height="29" viewBox="0 0 155 29" fill="none" xmlns="http://www.w3.org/2000/svg">
<path d="M2.73535 23.2783C3.98047 23.2783 4.69824 22.5166 4.69824 21.2129V8.73242H4.81543L10.0449 21.5352C10.4111 22.4434 11.0264 22.8682 11.9639 22.8682C12.8867 22.8682 13.4727 22.458 13.8535 21.5205L19.083 8.73242H19.2002V21.2129C19.2002 22.5166 19.918 23.2783 21.1631 23.2783C22.4082 23.2783 23.1406 22.5166 23.1406 21.2129V4.42578C23.1406 2.62402 22.0859 1.56934 20.2988 1.56934C18.7461 1.56934 17.8818 2.22852 17.2373 3.85449L12.0078 16.8477H11.8906L6.64648 3.85449C6.00195 2.21387 5.15234 1.56934 3.61426 1.56934C1.8125 1.56934 0.757812 2.63867 0.757812 4.42578V21.2129C0.757812 22.5166 1.49023 23.2783 2.73535 23.2783ZM31.8711 23.293C34.2441 23.293 35.7969 22.1504 36.5732 20.1729H36.6611V21.1396C36.6611 22.5605 37.4961 23.3076 38.7266 23.3076C39.957 23.3076 40.792 22.5605 40.792 21.1396V9.21582C40.792 7.75098 39.9131 6.97461 38.6533 6.97461C37.4082 6.97461 36.5146 7.75098 36.5146 9.21582V16.291C36.5146 18.3711 35.3281 19.7334 33.4238 19.7334C31.5342 19.7334 30.4941 18.6201 30.4941 16.5254V9.21582C30.4941 7.75098 29.6152 6.97461 28.3555 6.97461C27.1104 6.97461 26.2168 7.75098 26.2168 9.21582V17.4189C26.2168 21.0811 28.4727 23.293 31.8711 23.293ZM49.9766 23.3369C54.1221 23.3369 56.9199 21.3154 56.9199 18.1953C56.9199 15.8516 55.543 14.6211 52.2031 13.918L49.6104 13.3613C48.043 13.0244 47.4277 12.4824 47.4277 11.6621C47.4277 10.6514 48.4385 9.96289 49.8887 9.96289C51.4268 9.96289 52.2764 10.6953 53.0234 11.6475C53.4043 12.1016 54.0195 12.3066 54.5762 12.3066C55.6748 12.3066 56.2168 11.7061 56.2168 10.8418C56.2168 10.6367 56.1729 10.4316 56.1143 10.2119C55.6016 8.43945 53.2139 6.95996 49.9619 6.95996C45.8896 6.95996 43.2969 8.89355 43.2969 11.8965C43.2969 14.2256 44.8496 15.793 47.9258 16.4521L50.5625 17.0088C52.1006 17.3457 52.6426 17.7998 52.6426 18.6494C52.6426 19.6895 51.6318 20.334 50.0791 20.334C48.4531 20.334 47.4863 19.8359 46.6514 18.7373C46.0654 18.0781 45.4795 17.7705 44.791 17.7705C43.7949 17.7705 43.0625 18.4297 43.0625 19.4111C43.0625 19.6455 43.1211 19.9238 43.2236 20.2021C43.9707 22.0479 46.373 23.3369 49.9766 23.3369ZM61.2559 5.34863C62.5449 5.34863 63.541 4.36719 63.541 3.13672C63.541 1.8916 62.5449 0.924805 61.2559 0.924805C59.9668 0.924805 58.9707 1.8916 58.9707 3.13672C58.9707 4.36719 59.9668 5.34863 61.2559 5.34863ZM61.2559 23.3076C62.5742 23.3076 63.3945 22.4727 63.3945 21.0811V9.21582C63.3945 7.82422 62.5742 6.97461 61.2559 6.97461C59.9229 6.97461 59.1172 7.82422 59.1172 9.21582V21.0811C59.1172 22.4727 59.9229 23.3076 61.2559 23.3076ZM73.4141 23.3369C76.417 23.3369 79.0977 21.8428 80.0352 19.7041C80.2256 19.2793 80.3135 18.9277 80.3135 18.5908C80.3135 17.5361 79.5078 16.877 78.5117 16.877C77.6035 16.877 77.1348 17.2432 76.5635 18.1367C75.9043 19.25 74.9814 19.9824 73.4873 19.9824C71.3486 19.9824 70.0156 18.2246 70.0156 15.1338C70.0156 12.1016 71.3486 10.3145 73.5166 10.3145C74.8789 10.3145 75.8311 10.9443 76.6074 12.3213C77.0469 13.0977 77.5596 13.4346 78.4092 13.4346C79.4199 13.4346 80.2402 12.8193 80.2402 11.7646C80.2402 11.457 80.1523 11.0762 80.0059 10.71C79.1562 8.4834 76.5342 6.95996 73.3848 6.95996C68.668 6.95996 65.6797 10.124 65.6797 15.1484C65.6797 20.2314 68.6826 23.3369 73.4141 23.3369ZM84.7373 28.5957C85.9971 28.5957 86.876 27.834 86.876 26.3691V20.3633H86.9639C87.7988 22.1357 89.5566 23.249 91.8418 23.249C95.7676 23.249 98.1992 20.2021 98.1992 15.1484C98.1992 10.0801 95.7529 7.04785 91.7686 7.04785C89.498 7.04785 87.7549 8.19043 86.9053 10.0361H86.8174V9.18652C86.8174 7.73633 85.9385 6.97461 84.708 6.97461C83.4775 6.97461 82.5986 7.73633 82.5986 9.17188V26.3691C82.5986 27.834 83.4922 28.5957 84.7373 28.5957ZM90.333 19.8066C88.2383 19.8066 86.8613 17.9902 86.8613 15.1484C86.8613 12.3359 88.2383 10.4756 90.333 10.4756C92.4717 10.4756 93.8193 12.3066 93.8193 15.1484C93.8193 18.0049 92.4717 19.8066 90.333 19.8066ZM102.652 23.3076C103.912 23.3076 104.791 22.5459 104.791 21.0811V3.78125C104.791 2.31641 103.912 1.54004 102.652 1.54004C101.407 1.54004 100.514 2.31641 100.514 3.78125V21.0811C100.514 22.5459 101.407 23.3076 102.652 23.3076ZM112.32 23.249C114.283 23.249 116.246 22.2676 117.125 20.5977H117.213V21.4033C117.301 22.6631 118.106 23.3076 119.264 23.3076C120.479 23.3076 121.344 22.5752 121.344 21.1543V12.2041C121.344 9.04004 118.722 6.95996 114.693 6.95996C111.441 6.95996 108.922 8.11719 108.189 9.99219C108.043 10.3145 107.97 10.6221 107.97 10.959C107.97 11.9258 108.717 12.5996 109.757 12.5996C110.445 12.5996 110.987 12.3359 111.456 11.8086C112.408 10.5781 113.199 10.1533 114.503 10.1533C116.114 10.1533 117.14 11.0029 117.14 12.4678V13.5078L113.185 13.7422C109.259 13.9766 107.062 15.6318 107.062 18.4883C107.062 21.3154 109.332 23.249 112.32 23.249ZM113.727 20.1582C112.291 20.1582 111.324 19.4258 111.324 18.2539C111.324 17.1406 112.232 16.4229 113.829 16.3057L117.14 16.1006V17.2432C117.14 18.9424 115.602 20.1582 113.727 20.1582ZM131.275 23.3369C134.278 23.3369 136.959 21.8428 137.896 19.7041C138.087 19.2793 138.175 18.9277 138.175 18.5908C138.175 17.5361 137.369 16.877 136.373 16.877C135.465 16.877 134.996 17.2432 134.425 18.1367C133.766 19.25 132.843 19.9824 131.349 19.9824C129.21 19.9824 127.877 18.2246 127.877 15.1338C127.877 12.1016 129.21 10.3145 131.378 10.3145C132.74 10.3145 133.692 10.9443 134.469 12.3213C134.908 13.0977 135.421 13.4346 136.271 13.4346C137.281 13.4346 138.102 12.8193 138.102 11.7646C138.102 11.457 138.014 11.0762 137.867 10.71C137.018 8.4834 134.396 6.95996 131.246 6.95996C126.529 6.95996 123.541 10.124 123.541 15.1484C123.541 20.2314 126.544 23.3369 131.275 23.3369ZM147.682 23.3369C150.714 23.3369 153.146 22.1943 154.186 20.2607C154.376 19.9092 154.479 19.5576 154.479 19.2207C154.479 18.2393 153.731 17.6533 152.809 17.6533C152.252 17.6533 151.871 17.8145 151.417 18.2832C150.26 19.6455 149.234 20.1729 147.667 20.1729C145.499 20.1729 144.093 18.6494 144.093 16.3203V16.1299H153.058C154.244 16.1299 154.918 15.4561 154.918 14.2695C154.918 10.0068 151.93 6.95996 147.477 6.95996C142.833 6.95996 139.889 10.168 139.889 15.2217C139.889 20.3047 142.774 23.3369 147.682 23.3369ZM144.137 13.5078C144.283 11.501 145.646 10.124 147.521 10.124C149.396 10.124 150.714 11.457 150.802 13.5078H144.137Z" fill="white"/>
</svg>
