<svg width="232" height="43" viewBox="0 0 232 43" fill="none" xmlns="http://www.w3.org/2000/svg">
<path d="M3.60303 34.4175C5.4707 34.4175 6.54736 33.2749 6.54736 31.3193V12.5986H6.72314L14.5674 31.8027C15.1167 33.165 16.0396 33.8022 17.4458 33.8022C18.8301 33.8022 19.709 33.187 20.2803 31.7808L28.1245 12.5986H28.3003V31.3193C28.3003 33.2749 29.377 34.4175 31.2446 34.4175C33.1123 34.4175 34.2109 33.2749 34.2109 31.3193V6.13867C34.2109 3.43604 32.6289 1.854 29.9482 1.854C27.6191 1.854 26.3228 2.84277 25.356 5.28174L17.5117 24.7715H17.3359L9.46973 5.28174C8.50293 2.8208 7.22852 1.854 4.92139 1.854C2.21875 1.854 0.636719 3.45801 0.636719 6.13867V31.3193C0.636719 33.2749 1.73535 34.4175 3.60303 34.4175ZM47.3066 34.4395C50.8662 34.4395 53.1953 32.7256 54.3599 29.7593H54.4917V31.2095C54.4917 33.3408 55.7441 34.4614 57.5898 34.4614C59.4355 34.4614 60.688 33.3408 60.688 31.2095V13.3237C60.688 11.1265 59.3696 9.96191 57.48 9.96191C55.6123 9.96191 54.272 11.1265 54.272 13.3237V23.9365C54.272 27.0566 52.4922 29.1001 49.6357 29.1001C46.8013 29.1001 45.2412 27.4302 45.2412 24.2881V13.3237C45.2412 11.1265 43.9229 9.96191 42.0332 9.96191C40.1655 9.96191 38.8252 11.1265 38.8252 13.3237V25.6284C38.8252 31.1216 42.209 34.4395 47.3066 34.4395ZM74.4648 34.5054C80.6831 34.5054 84.8799 31.4731 84.8799 26.793C84.8799 23.2773 82.8145 21.4316 77.8047 20.377L73.9155 19.542C71.5645 19.0366 70.6416 18.2236 70.6416 16.9932C70.6416 15.4771 72.1577 14.4443 74.333 14.4443C76.6401 14.4443 77.9146 15.543 79.0352 16.9712C79.6064 17.6523 80.5293 17.96 81.3643 17.96C83.0122 17.96 83.8252 17.0591 83.8252 15.7627C83.8252 15.4551 83.7593 15.1475 83.6714 14.8179C82.9023 12.1592 79.3208 9.93994 74.4429 9.93994C68.3345 9.93994 64.4453 12.8403 64.4453 17.3447C64.4453 20.8384 66.7744 23.1895 71.3887 24.1782L75.3438 25.0132C77.6509 25.5186 78.4639 26.1997 78.4639 27.4741C78.4639 29.0342 76.9478 30.001 74.6187 30.001C72.1797 30.001 70.7295 29.2539 69.4771 27.606C68.5981 26.6172 67.7192 26.1558 66.6865 26.1558C65.1924 26.1558 64.0938 27.1445 64.0938 28.6167C64.0938 28.9683 64.1816 29.3857 64.3354 29.8032C65.4561 32.5718 69.0596 34.5054 74.4648 34.5054ZM91.3838 7.52295C93.3174 7.52295 94.8115 6.05078 94.8115 4.20508C94.8115 2.3374 93.3174 0.887207 91.3838 0.887207C89.4502 0.887207 87.9561 2.3374 87.9561 4.20508C87.9561 6.05078 89.4502 7.52295 91.3838 7.52295ZM91.3838 34.4614C93.3613 34.4614 94.5918 33.209 94.5918 31.1216V13.3237C94.5918 11.2363 93.3613 9.96191 91.3838 9.96191C89.3843 9.96191 88.1758 11.2363 88.1758 13.3237V31.1216C88.1758 33.209 89.3843 34.4614 91.3838 34.4614ZM109.621 34.5054C114.125 34.5054 118.146 32.2642 119.553 29.0562C119.838 28.4189 119.97 27.8916 119.97 27.3862C119.97 25.8042 118.762 24.8154 117.268 24.8154C115.905 24.8154 115.202 25.3647 114.345 26.7051C113.356 28.375 111.972 29.4736 109.731 29.4736C106.523 29.4736 104.523 26.8369 104.523 22.2007C104.523 17.6523 106.523 14.9717 109.775 14.9717C111.818 14.9717 113.247 15.9165 114.411 17.9819C115.07 19.1465 115.839 19.6519 117.114 19.6519C118.63 19.6519 119.86 18.729 119.86 17.147C119.86 16.6855 119.729 16.1143 119.509 15.5649C118.234 12.2251 114.301 9.93994 109.577 9.93994C102.502 9.93994 98.0195 14.686 98.0195 22.2227C98.0195 29.8472 102.524 34.5054 109.621 34.5054ZM126.606 42.3936C128.496 42.3936 129.814 41.251 129.814 39.0537V30.0449H129.946C131.198 32.7036 133.835 34.3735 137.263 34.3735C143.151 34.3735 146.799 29.8032 146.799 22.2227C146.799 14.6201 143.129 10.0718 137.153 10.0718C133.747 10.0718 131.132 11.7856 129.858 14.5542H129.726V13.2798C129.726 11.1045 128.408 9.96191 126.562 9.96191C124.716 9.96191 123.398 11.1045 123.398 13.2578V39.0537C123.398 41.251 124.738 42.3936 126.606 42.3936ZM135 29.21C131.857 29.21 129.792 26.4854 129.792 22.2227C129.792 18.0039 131.857 15.2134 135 15.2134C138.208 15.2134 140.229 17.96 140.229 22.2227C140.229 26.5073 138.208 29.21 135 29.21ZM153.479 34.4614C155.368 34.4614 156.687 33.3188 156.687 31.1216V5.17188C156.687 2.97461 155.368 1.81006 153.479 1.81006C151.611 1.81006 150.271 2.97461 150.271 5.17188V31.1216C150.271 33.3188 151.611 34.4614 153.479 34.4614ZM167.98 34.3735C170.925 34.3735 173.869 32.9014 175.188 30.3965H175.319V31.605C175.451 33.4946 176.66 34.4614 178.396 34.4614C180.219 34.4614 181.516 33.3628 181.516 31.2314V17.8062C181.516 13.0601 177.583 9.93994 171.54 9.93994C166.662 9.93994 162.883 11.6758 161.784 14.4883C161.564 14.9717 161.455 15.4331 161.455 15.9385C161.455 17.3887 162.575 18.3994 164.135 18.3994C165.168 18.3994 165.981 18.0039 166.684 17.2129C168.112 15.3672 169.299 14.73 171.254 14.73C173.671 14.73 175.209 16.0044 175.209 18.2017V19.7617L169.277 20.1133C163.388 20.4648 160.092 22.9478 160.092 27.2324C160.092 31.4731 163.498 34.3735 167.98 34.3735ZM170.09 29.7373C167.937 29.7373 166.486 28.6387 166.486 26.8809C166.486 25.2109 167.849 24.1343 170.244 23.9585L175.209 23.6509V25.3647C175.209 27.9136 172.902 29.7373 170.09 29.7373ZM196.413 34.5054C200.917 34.5054 204.938 32.2642 206.345 29.0562C206.63 28.4189 206.762 27.8916 206.762 27.3862C206.762 25.8042 205.554 24.8154 204.06 24.8154C202.697 24.8154 201.994 25.3647 201.137 26.7051C200.148 28.375 198.764 29.4736 196.523 29.4736C193.315 29.4736 191.315 26.8369 191.315 22.2007C191.315 17.6523 193.315 14.9717 196.567 14.9717C198.61 14.9717 200.039 15.9165 201.203 17.9819C201.862 19.1465 202.631 19.6519 203.906 19.6519C205.422 19.6519 206.652 18.729 206.652 17.147C206.652 16.6855 206.521 16.1143 206.301 15.5649C205.026 12.2251 201.093 9.93994 196.369 9.93994C189.294 9.93994 184.812 14.686 184.812 22.2227C184.812 29.8472 189.316 34.5054 196.413 34.5054ZM221.022 34.5054C225.571 34.5054 229.218 32.7915 230.778 29.8911C231.064 29.3638 231.218 28.8364 231.218 28.3311C231.218 26.8589 230.097 25.98 228.713 25.98C227.878 25.98 227.307 26.2217 226.625 26.9248C224.89 28.9683 223.352 29.7593 221 29.7593C217.749 29.7593 215.639 27.4741 215.639 23.9805V23.6948H229.086C230.866 23.6948 231.877 22.6841 231.877 20.9043C231.877 14.5103 227.395 9.93994 220.715 9.93994C213.75 9.93994 209.333 14.752 209.333 22.3325C209.333 29.957 213.662 34.5054 221.022 34.5054ZM215.705 19.7617C215.925 16.7515 217.968 14.686 220.781 14.686C223.593 14.686 225.571 16.6855 225.703 19.7617H215.705Z" fill="white"/>
</svg>
